<?xml version="1.0" encoding="utf-8"?>
<!-- Generator: Adobe Illustrator 20.0.0, SVG Export Plug-In . SVG Version: 6.00 Build 0)  -->
<svg version="1.1" id="Layer_1" xmlns="http://www.w3.org/2000/svg" xmlns:xlink="http://www.w3.org/1999/xlink" x="0px" y="0px"
	 viewBox="0 0 278 278" style="enable-background:new 0 0 278 278;" xml:space="preserve">
<style type="text/css">
	.st0{fill:#E84D2A;}
</style>
<path class="st0" d="M159.8,209c-12,16.6-24.3,30.4-39.6,42.9c-0.4,0.3-1,0.4-1.4,0.2c-6.3-3-17.3-8.8-24-12.8
	c-1.1-0.7-1.1-2.2-0.1-2.9c17.7-13.3,33.8-29.4,47.7-47.5c21.5-28,39.7-68.4,24.1-105.1c-6.7-15.7-20.7-26.2-36.5-25.5
	c-15.2,0.7-28.3,11.8-35.4,26.3c-0.8,1.6-3,1.6-3.8,0c-2.2-4.6-5.1-8.8-8.4-12.5c-0.6-0.7-0.7-1.6-0.3-2.4
	c7.7-12.9,22.7-20.5,35.7-22.8c14.1-2.5,30.2-0.2,42.4,9.1c13.1,9.9,22.5,26.5,26.6,43.4C196.1,137.3,181.1,179.5,159.8,209
	C147.7,225.8,172.1,192.1,159.8,209z M192.2,57.5c-20.9-22.6-47.3-30.2-75.6-27.2C96.5,32.3,74.8,39,60.5,55.7
	c-1,1.2-0.5,3.1,1.1,3.5c4.2,1,8.3,2.8,12,5.2c1,0.6,2.2,0.4,2.9-0.5c12.6-17.3,35.3-23.1,51.6-23.3c19.1-0.2,37.3,7.7,49.7,24.2
	c11.3,15.1,17.4,34.8,18.7,54.3c1.6,23.9-5,47.7-14.8,68.8c-11.7,25.2-28.5,48.3-49,65.4c-1.3,1.1-0.9,3.1,0.7,3.7
	c13,4.3,26.4,7.4,39.6,9.3c0.7,0.1,1.4-0.2,1.9-0.7c36.7-43.7,60.1-107.8,41-166.8C210.8,83.2,202.8,69,192.2,57.5L192.2,57.5z
	 M243.6,75.2c-23.2-40-62.6-60.7-104.2-65.8C118.7,6.8,98,8.6,78.3,16.2C60.5,23,42.9,34,29.6,49.4C9.9,72,6.3,96.6,8.7,110.1
	c0.4,2.4,3.9,2.2,4-0.2c0.3-8.7,2.1-17.5,5.7-26.1c5.5-13,16-22.4,28.4-24.8c1.1-0.2,2.2-0.8,2.9-1.8c17-22.4,44.2-31.3,69.7-32.8
	c22-1.3,44.6,3.1,63.3,16.7c42.4,31,55.1,89.7,43.1,142.5c-6.9,30.4-19.6,56.4-37,80.7c-1,1.4-0.1,3.4,1.7,3.6
	c23.7,1.5,43.2-0.6,60.3-5c0.6-0.2,1.1-0.6,1.4-1.2C273.7,202.4,275.6,130.3,243.6,75.2z"/>
</svg>
