<svg id="Layer_1" data-name="Layer 1" xmlns="http://www.w3.org/2000/svg" viewBox="0 0 960 278"><defs><style>.cls-1{fill:#e84d2a;}</style></defs><title>Logo</title><path class="cls-1" d="M329.48,260.83a5.52,5.52,0,0,1-1.54,4.19,6.68,6.68,0,0,1-4.76,1.47q-3.27,0-4.79-1.47a5.56,5.56,0,0,1-1.52-4.19V208.58a5.87,5.87,0,0,1,1.52-4.3,5.81,5.81,0,0,1,4.33-1.54h13.53a41.5,41.5,0,0,1,11.21,1.33,22.17,22.17,0,0,1,7.78,3.75,14.83,14.83,0,0,1,4.51,5.73,17.83,17.83,0,0,1,1.45,7.23,19,19,0,0,1-.92,6,17.39,17.39,0,0,1-2.58,5,17,17,0,0,1-4,3.82,21.1,21.1,0,0,1-5.2,2.58l11.88,18.28a12.07,12.07,0,0,1,1.13,2.07,5.14,5.14,0,0,1-.28,4.3,7,7,0,0,1-1.63,2,7.72,7.72,0,0,1-2.32,1.33,7.61,7.61,0,0,1-2.65.48,5.72,5.72,0,0,1-2.32-.44,5.62,5.62,0,0,1-1.73-1.17l-.53-.55a4.45,4.45,0,0,1-.46-.6l-.44-.69-.51-.83-12.8-21.59h-6.35ZM336,231a18.83,18.83,0,0,0,5.39-.69,10.9,10.9,0,0,0,3.82-1.93,7.66,7.66,0,0,0,2.26-3,10.4,10.4,0,0,0,0-7.57,6.94,6.94,0,0,0-2.19-2.85,10.78,10.78,0,0,0-3.89-1.82,22.58,22.58,0,0,0-5.8-.64h-6.12V231Z"/><path class="cls-1" d="M368.75,208.07a5.43,5.43,0,0,1,1.59-4.19,6.94,6.94,0,0,1,4.86-1.47,6.85,6.85,0,0,1,4.83,1.47,5.48,5.48,0,0,1,1.57,4.19v31.81a26.7,26.7,0,0,0,1,7.67,14.38,14.38,0,0,0,2.74,5.27,10.63,10.63,0,0,0,4.21,3,14.37,14.37,0,0,0,5.34,1,13.38,13.38,0,0,0,5-.92,10.39,10.39,0,0,0,4-2.83,13.52,13.52,0,0,0,2.62-4.81,22.43,22.43,0,0,0,.94-6.91V208.07a5.47,5.47,0,0,1,1.57-4.19,6.85,6.85,0,0,1,4.83-1.47,6.94,6.94,0,0,1,4.86,1.47,5.43,5.43,0,0,1,1.59,4.19v32a35.66,35.66,0,0,1-1.77,11.78,22.31,22.31,0,0,1-5.11,8.45,21.14,21.14,0,0,1-8.19,5.09,33.22,33.22,0,0,1-11,1.7,33.6,33.6,0,0,1-11-1.63,19.7,19.7,0,0,1-12.8-12.82,33.88,33.88,0,0,1-1.66-11.09Z"/><path class="cls-1" d="M431.13,211.16q0-4.42,2.19-6.58t6.7-2.16a11.78,11.78,0,0,1,3.52.46,8.54,8.54,0,0,1,2.6,1.34,10.7,10.7,0,0,1,2.09,2.14q.94,1.27,1.91,2.88L470,241.59q1.06,1.75,1.93,3.43t1.52,3q.78,1.52,1.43,2.95l.23-.09q-.14-1.61-.32-3.45-.14-1.56-.28-3.57t-.18-4.21l-.55-32.13a4.56,4.56,0,0,1,1.4-3.73,6.27,6.27,0,0,1,4.4-1.38,6.07,6.07,0,0,1,4.33,1.36,4.93,4.93,0,0,1,1.43,3.75V257.7q0,4.47-2.19,6.63t-6.7,2.16a12,12,0,0,1-3.54-.46,8.46,8.46,0,0,1-2.62-1.33,10.67,10.67,0,0,1-2.09-2.14,34.42,34.42,0,0,1-1.91-2.88l-19.84-32.36q-1.06-1.75-2-3.43t-1.54-3q-.78-1.52-1.43-2.95l-.18.09q.14,1.61.32,3.45.14,1.57.25,3.59t.21,4.19l.55,32.13a4.57,4.57,0,0,1-1.4,3.73,6.27,6.27,0,0,1-4.4,1.38,6.07,6.07,0,0,1-4.33-1.36,4.93,4.93,0,0,1-1.43-3.75Z"/><path class="cls-1" d="M496.78,211.16q0-4.42,2.19-6.58t6.7-2.16a11.78,11.78,0,0,1,3.52.46,8.54,8.54,0,0,1,2.6,1.34,10.72,10.72,0,0,1,2.09,2.14q.94,1.27,1.91,2.88l19.89,32.36q1.06,1.75,1.93,3.43t1.52,3q.78,1.52,1.43,2.95l.23-.09q-.14-1.61-.32-3.45-.14-1.56-.28-3.57t-.18-4.21l-.55-32.13a4.56,4.56,0,0,1,1.4-3.73,6.27,6.27,0,0,1,4.4-1.38,6.07,6.07,0,0,1,4.33,1.36,4.93,4.93,0,0,1,1.43,3.75V257.7q0,4.47-2.19,6.63t-6.7,2.16a12,12,0,0,1-3.54-.46A8.47,8.47,0,0,1,536,264.7a10.67,10.67,0,0,1-2.09-2.14,34.3,34.3,0,0,1-1.91-2.88l-19.84-32.36q-1.06-1.75-2-3.43t-1.54-3q-.78-1.52-1.43-2.95L507,218q.14,1.61.32,3.45.14,1.57.25,3.59t.21,4.19l.55,32.13a4.57,4.57,0,0,1-1.4,3.73,6.27,6.27,0,0,1-4.4,1.38,6.07,6.07,0,0,1-4.33-1.36,4.93,4.93,0,0,1-1.43-3.75Z"/><path class="cls-1" d="M575.27,256.18h21.64a4.09,4.09,0,0,1,3.15,1.27,5.34,5.34,0,0,1,1.17,3.75,5.25,5.25,0,0,1-1.17,3.73,4.13,4.13,0,0,1-3.15,1.24H568.28a5.8,5.8,0,0,1-4.33-1.54,5.87,5.87,0,0,1-1.52-4.3V208.58a5.87,5.87,0,0,1,1.52-4.3,5.81,5.81,0,0,1,4.33-1.54h28.4a4.19,4.19,0,0,1,3.2,1.24,5.25,5.25,0,0,1,1.17,3.73,5.34,5.34,0,0,1-1.17,3.75,4.15,4.15,0,0,1-3.2,1.27H575.27v16.16h18.28a4.08,4.08,0,0,1,3.11,1.24,5.18,5.18,0,0,1,1.17,3.68,5.11,5.11,0,0,1-1.17,3.64,4.08,4.08,0,0,1-3.11,1.24H575.27Z"/><path class="cls-1" d="M621.27,260.83a5.52,5.52,0,0,1-1.54,4.19,6.68,6.68,0,0,1-4.76,1.47q-3.27,0-4.79-1.47a5.56,5.56,0,0,1-1.52-4.19V208.58a5.87,5.87,0,0,1,1.52-4.3,5.81,5.81,0,0,1,4.33-1.54H628a41.51,41.51,0,0,1,11.21,1.33,22.16,22.16,0,0,1,7.78,3.75,14.83,14.83,0,0,1,4.51,5.73,17.83,17.83,0,0,1,1.45,7.23,19,19,0,0,1-.92,6,17.36,17.36,0,0,1-2.58,5,16.93,16.93,0,0,1-4,3.82,21.11,21.11,0,0,1-5.2,2.58l11.88,18.28a12,12,0,0,1,1.13,2.07,5,5,0,0,1,.35,1.84,5,5,0,0,1-.62,2.46,7,7,0,0,1-1.63,2,7.72,7.72,0,0,1-2.33,1.33,7.6,7.6,0,0,1-2.65.48,5.72,5.72,0,0,1-2.33-.44,5.61,5.61,0,0,1-1.73-1.17l-.53-.55a4.4,4.4,0,0,1-.46-.6l-.44-.69-.51-.83-12.8-21.59h-6.35ZM627.76,231a18.84,18.84,0,0,0,5.39-.69,10.9,10.9,0,0,0,3.82-1.93,7.66,7.66,0,0,0,2.26-3,10.41,10.41,0,0,0,0-7.57,6.94,6.94,0,0,0-2.19-2.85,10.78,10.78,0,0,0-3.89-1.82,22.59,22.59,0,0,0-5.8-.64h-6.12V231Z"/><path class="cls-1" d="M659.48,205.22a8,8,0,0,1,.6-3.13,7.56,7.56,0,0,1,4.17-4.14,8.18,8.18,0,0,1,3.15-.6,8,8,0,0,1,3.13.6,6.42,6.42,0,0,1,2.42,1.75,8.3,8.3,0,0,1,1.54,2.79,11.54,11.54,0,0,1,.55,3.71,20.71,20.71,0,0,1-.53,4.74,26,26,0,0,1-1.36,4.21,26.9,26.9,0,0,1-1.86,3.64q-1,1.68-2,3A19.77,19.77,0,0,1,665,226a7.73,7.73,0,0,1-4.4,1.54,3.69,3.69,0,0,1-2.69-.92,3.29,3.29,0,0,1-.23-4.35q.71-.9,1.75-2.14a29.06,29.06,0,0,0,2.21-3.11,19.37,19.37,0,0,0,2-4.86,7.36,7.36,0,0,1-1.5-.9,6.3,6.3,0,0,1-1.36-1.43,7.4,7.4,0,0,1-1-2A8.36,8.36,0,0,1,659.48,205.22Z"/><path class="cls-1" d="M682.41,220.55a18.62,18.62,0,0,1,1.47-7.43,16.16,16.16,0,0,1,4.4-5.94,20.93,20.93,0,0,1,7.26-3.91,32.63,32.63,0,0,1,10-1.4,36.56,36.56,0,0,1,5.21.34,27.92,27.92,0,0,1,4.19.91,16.75,16.75,0,0,1,3.16,1.3,9.45,9.45,0,0,1,2.05,1.46,5.56,5.56,0,0,1,1.36,2,6.35,6.35,0,0,1,.35,2.19,4.23,4.23,0,0,1-1.25,3.27,4.5,4.5,0,0,1-3.18,1.15,5.85,5.85,0,0,1-2.19-.42q-1-.41-2.4-.92a24.33,24.33,0,0,0-3.25-.92,22.16,22.16,0,0,0-4.66-.41,15.89,15.89,0,0,0-4.38.53,8.78,8.78,0,0,0-3.07,1.51,5.92,5.92,0,0,0-1.8,2.32,7.33,7.33,0,0,0-.58,2.92,5.92,5.92,0,0,0,1.24,3.84,10.57,10.57,0,0,0,3.32,2.65,30.36,30.36,0,0,0,4.7,2q2.63.88,5.35,1.89a48.64,48.64,0,0,1,5.35,2.37,19.2,19.2,0,0,1,4.7,3.41,15.29,15.29,0,0,1,3.32,5,18.31,18.31,0,0,1,1.25,7.14,19.89,19.89,0,0,1-1.54,7.89,16.94,16.94,0,0,1-4.59,6.24,21.67,21.67,0,0,1-7.6,4.1,34.56,34.56,0,0,1-10.6,1.47,39.61,39.61,0,0,1-5.83-.39,32.94,32.94,0,0,1-4.59-1,17.91,17.91,0,0,1-3.34-1.33,9,9,0,0,1-2.05-1.43,6.3,6.3,0,0,1-1.38-1.93,5.81,5.81,0,0,1-.41-2.3,4.37,4.37,0,0,1,1.24-3.34,4.44,4.44,0,0,1,3.18-1.17,5.33,5.33,0,0,1,2.19.46q1,.46,2.51,1a28.57,28.57,0,0,0,3.61,1,26.68,26.68,0,0,0,5.46.46,16.84,16.84,0,0,0,4.86-.62,9.89,9.89,0,0,0,3.38-1.7,6.86,6.86,0,0,0,2-2.6,8.14,8.14,0,0,0,.67-3.31,6.61,6.61,0,0,0-1.24-4.12,11.11,11.11,0,0,0-3.29-2.83,27.07,27.07,0,0,0-4.67-2.12q-2.62-.92-5.36-2t-5.36-2.33a18.24,18.24,0,0,1-4.67-3.27,15,15,0,0,1-3.29-4.79A16.79,16.79,0,0,1,682.41,220.55Z"/><path class="cls-1" d="M766,260.83a5.47,5.47,0,0,1-1.57,4.19,6.92,6.92,0,0,1-4.88,1.47,6.84,6.84,0,0,1-4.83-1.47,5.47,5.47,0,0,1-1.57-4.19V208.07a5.47,5.47,0,0,1,1.57-4.19,6.85,6.85,0,0,1,4.83-1.47,6.92,6.92,0,0,1,4.88,1.47,5.48,5.48,0,0,1,1.57,4.19v20.58h25.5V208.07a5.47,5.47,0,0,1,1.56-4.19,8.7,8.7,0,0,1,9.69,0,5.43,5.43,0,0,1,1.59,4.19v52.76A5.47,5.47,0,0,1,802.8,265a6.85,6.85,0,0,1-4.83,1.47,6.92,6.92,0,0,1-4.88-1.47,5.47,5.47,0,0,1-1.56-4.19V239H766Z"/><path class="cls-1" d="M815.78,208.07a5.47,5.47,0,0,1,1.57-4.19,6.85,6.85,0,0,1,4.83-1.47,6.92,6.92,0,0,1,4.88,1.47,5.48,5.48,0,0,1,1.57,4.19v52.76a5.47,5.47,0,0,1-1.57,4.19,6.92,6.92,0,0,1-4.88,1.47,6.84,6.84,0,0,1-4.83-1.47,5.47,5.47,0,0,1-1.57-4.19Z"/><path class="cls-1" d="M870,241.13a3.9,3.9,0,0,1-3.13-1.29,5.27,5.27,0,0,1-1.1-3.54,5.2,5.2,0,0,1,1.1-3.5A3.9,3.9,0,0,1,870,231.5h15.42a4.84,4.84,0,0,1,5.39,5.39v18.78a9.28,9.28,0,0,1-.62,3.68,7.19,7.19,0,0,1-2,2.58,15.33,15.33,0,0,1-2.58,1.68,24.18,24.18,0,0,1-4.1,1.68,37.79,37.79,0,0,1-5.71,1.29,48,48,0,0,1-7.32.51A39.87,39.87,0,0,1,855.1,265a27.17,27.17,0,0,1-10-6.12,26.67,26.67,0,0,1-6.28-9.76,36.46,36.46,0,0,1-2.19-13,40.35,40.35,0,0,1,2.32-14,29.53,29.53,0,0,1,6.77-10.77,30.23,30.23,0,0,1,10.86-6.91,41,41,0,0,1,14.62-2.44,35.59,35.59,0,0,1,6.24.51,32.46,32.46,0,0,1,5,1.27,21.3,21.3,0,0,1,3.66,1.63,11.26,11.26,0,0,1,2.23,1.61,5.49,5.49,0,0,1,1.79,4.37,4.87,4.87,0,0,1-.34,1.89,4.56,4.56,0,0,1-.92,1.43,3.85,3.85,0,0,1-1.4.92,4.91,4.91,0,0,1-1.79.32,5.25,5.25,0,0,1-2.33-.58q-1.17-.58-2.88-1.29a26.44,26.44,0,0,0-4.19-1.29,28.41,28.41,0,0,0-6.26-.58,22.56,22.56,0,0,0-8.24,1.45,17.14,17.14,0,0,0-6.4,4.3,19.48,19.48,0,0,0-4.12,7,29.67,29.67,0,0,0-1.45,9.71,30.25,30.25,0,0,0,1.45,9.81,19.4,19.4,0,0,0,4.12,7.09,17,17,0,0,0,6.47,4.3,23.79,23.79,0,0,0,8.54,1.45,25.94,25.94,0,0,0,3.73-.23,25.32,25.32,0,0,0,2.62-.51,10.9,10.9,0,0,0,2-.74V241.13Z"/><path class="cls-1" d="M913.52,260.83A5.47,5.47,0,0,1,912,265a6.92,6.92,0,0,1-4.88,1.47,6.84,6.84,0,0,1-4.83-1.47,5.47,5.47,0,0,1-1.57-4.19V208.07a5.47,5.47,0,0,1,1.57-4.19,6.85,6.85,0,0,1,4.83-1.47,6.92,6.92,0,0,1,4.88,1.47,5.48,5.48,0,0,1,1.57,4.19v20.58H939V208.07a5.47,5.47,0,0,1,1.56-4.19,8.7,8.7,0,0,1,9.69,0,5.43,5.43,0,0,1,1.59,4.19v52.76a5.47,5.47,0,0,1-1.57,4.19,6.85,6.85,0,0,1-4.83,1.47,6.92,6.92,0,0,1-4.88-1.47,5.47,5.47,0,0,1-1.56-4.19V239h-25.5Z"/><path class="cls-1" d="M163.09,209c-12,16.61-24.34,30.36-39.57,42.88a1.35,1.35,0,0,1-1.44.2c-6.32-3-17.28-8.84-24-12.83a1.76,1.76,0,0,1-.13-2.94,248.62,248.62,0,0,0,47.7-47.47c21.5-28,39.68-68.39,24.14-105.05-6.65-15.7-20.7-26.19-36.53-25.46C118.12,59,105,70.11,97.85,84.6a2.11,2.11,0,0,1-3.8,0,54.9,54.9,0,0,0-8.36-12.46,2,2,0,0,1-.27-2.36c7.69-12.94,22.66-20.45,35.66-22.8,14.15-2.55,30.18-.21,42.42,9.05C176.66,66,186,82.48,190.12,99.39c9.24,37.87-5.73,80.09-27,109.59ZM195.47,57.49c-20.86-22.62-47.32-30.16-75.64-27.23C99.74,32.33,78,39,63.73,55.72a2.13,2.13,0,0,0,1.07,3.5,39.49,39.49,0,0,1,12,5.17,2.13,2.13,0,0,0,2.9-.54c12.62-17.3,35.31-23.1,51.65-23.3,19.05-.24,37.28,7.73,49.67,24.23,11.34,15.08,17.39,34.85,18.73,54.3,1.64,23.93-5,47.7-14.79,68.78-11.69,25.23-28.51,48.31-49,65.38a2.13,2.13,0,0,0,.66,3.67,224.29,224.29,0,0,0,39.61,9.26,2.08,2.08,0,0,0,1.88-.72c36.69-43.66,60.13-107.81,41-166.8a111.35,111.35,0,0,0-23.64-41.14Zm51.37,17.67c-23.23-40-62.63-60.74-104.23-65.82C122,6.82,101.24,8.58,81.55,16.17,63.71,23,46.16,34,32.82,49.38,13.15,72,9.5,96.61,11.9,110.05a2,2,0,0,0,4-.25,73.55,73.55,0,0,1,5.74-26.05c5.49-13,16-22.35,28.43-24.83A4.74,4.74,0,0,0,53,57.16c17-22.39,44.22-31.26,69.7-32.81,22-1.34,44.65,3.06,63.35,16.74,42.36,31,55.11,89.73,43.11,142.49-6.92,30.42-19.62,56.44-37,80.72a2.25,2.25,0,0,0,1.67,3.56c23.7,1.49,43.23-.64,60.34-5a2,2,0,0,0,1.36-1.24C277,202.38,278.86,130.29,246.84,75.16Z"/></svg>